<svg width="125" height="178" viewBox="0 0 125 178" fill="none" xmlns="http://www.w3.org/2000/svg">
<path d="M0.72 137.52C22.16 121.52 39.12 107.04 51.6 94.08C64.08 80.96 70.32 68.72 70.32 57.36C70.32 53.52 69.44 50.56 67.68 48.48C66.08 46.4 63.92 45.36 61.2 45.36C58 45.36 55.44 47.04 53.52 50.4C51.76 53.6 51.12 58.56 51.6 65.28H8.9407e-08C0.48 50.4 3.68 38.16 9.6 28.56C15.68 18.96 23.52 11.92 33.12 7.43999C42.72 2.95999 53.28 0.719991 64.8 0.719991C85.28 0.719991 100.24 5.67999 109.68 15.6C119.28 25.36 124.08 37.92 124.08 53.28C124.08 69.44 118.88 84.64 108.48 98.88C98.24 112.96 85.36 124.88 69.84 134.64H124.8V177.6H0.72V137.52Z" fill="#6667AB"/>
</svg>
