<svg width="128" height="182" viewBox="0 0 128 182" fill="none" xmlns="http://www.w3.org/2000/svg">
<path d="M2.8 59.52C3.28 40.48 8.8 25.92 19.36 15.84C30.08 5.75999 45.2 0.719991 64.72 0.719991C77.36 0.719991 88.16 2.87999 97.12 7.19999C106.08 11.52 112.8 17.36 117.28 24.72C121.92 32.08 124.24 40.4 124.24 49.68C124.24 60.88 121.6 69.68 116.32 76.08C111.04 82.32 105.12 86.56 98.56 88.8V89.76C117.76 96.96 127.36 110.32 127.36 129.84C127.36 140.08 124.96 149.12 120.16 156.96C115.36 164.8 108.48 170.88 99.52 175.2C90.72 179.52 80.24 181.68 68.08 181.68C47.28 181.68 30.96 176.72 19.12 166.8C7.28 156.88 1.2 141.36 0.88 120.24H52.72C52.4 126 53.2 130.4 55.12 133.44C57.2 136.32 60.72 137.76 65.68 137.76C68.56 137.76 70.96 136.72 72.88 134.64C74.8 132.4 75.76 129.52 75.76 126C75.76 121.52 74.24 118.16 71.2 115.92C68.32 113.52 63.36 112.32 56.32 112.32H47.44V69.36H56.08C66.96 70 72.4 65.68 72.4 56.4C72.4 52.4 71.52 49.44 69.76 47.52C68.16 45.6 66.08 44.64 63.52 44.64C57.6 44.64 54.64 49.6 54.64 59.52H2.8Z" fill="#6667AB"/>
</svg>
