<svg width="55" height="40" viewBox="0 0 55 40" fill="none" xmlns="http://www.w3.org/2000/svg">
<path d="M22.1158 0.533408C23.2963 0.556695 24.4796 0.432043 25.6573 0.555325C25.7637 1.84841 26.1591 3.09493 26.3872 4.36884C25.4748 4.18665 24.5445 4.24145 23.6225 4.23186C23.4843 3.9305 23.3571 3.63052 23.2175 3.33464C22.8512 2.3977 22.3964 1.495 22.1116 0.527929L22.1158 0.533408ZM27.1074 0.910102C29.2417 0.763534 31.9939 1.87581 33.9527 2.69084C35.6295 3.52778 37.3422 4.39349 39.2166 4.688C40.5456 4.89401 41.8961 4.92671 43.2337 4.78526C43.3153 4.77841 43.2793 4.76471 43.3083 4.8784C43.7866 6.7605 44.2373 8.66589 44.6907 10.5562C45.1754 12.5652 45.6565 14.5743 46.1338 16.5833C45.7191 16.8025 45.2644 16.897 44.8427 17.0888C44.6326 17.1901 44.428 17.2942 44.2138 17.3929C42.5743 18.2764 41.3745 19.7749 40.3211 21.2653C42.0615 21.2653 43.8005 21.2475 45.5408 21.2749C56.3645 22.0693 54.555 39.5 46.9231 39.5L6.35714 39.4836C-0.952649 39.5014 -4.61722 21.3899 10.3562 21.2653C9.17572 18.3764 9.01537 15.1258 9.78119 12.1137C9.81436 11.6493 10.1848 12.0137 10.4295 12.1C10.7516 12.3123 11.0778 12.5109 11.4165 12.7013C11.8517 12.9247 12.2752 13.1698 12.6855 13.4355C12.0924 15.4505 12.2846 17.6175 12.9426 19.5996C13.1624 20.164 13.3435 20.7461 13.6338 21.279C21.0597 21.2708 28.4846 21.2708 35.9087 21.279C37.2067 19.4489 38.4287 17.5339 40.0778 15.9874C39.5968 16.1518 39.1005 16.2614 38.6139 16.4148C38.4757 15.982 38.3693 15.5409 38.22 15.1135C37.873 15.6382 37.5634 16.1737 36.8915 16.3203C36.4561 16.4148 35.9847 16.0916 35.7594 16.2135C35.6322 16.3039 35.5313 16.4354 35.3751 16.5436C35.0462 16.7814 34.6254 16.8567 34.2333 16.7477C33.8186 16.6408 33.7868 16.6518 33.4537 16.9271C33.3831 16.9863 33.3082 17.0403 33.2297 17.0888C32.8731 17.3228 32.4188 17.3545 32.0326 17.1723C31.4451 16.8984 31.0056 16.4477 30.5729 15.9833C29.2597 16.408 27.887 16.6395 26.5461 16.9655C26.0989 16.8616 25.6723 16.6843 25.2841 16.4409C24.8929 15.8162 24.8251 15.0272 24.9385 14.3081L25.4085 13.8629C26.842 13.4314 28.1994 13.1314 29.6633 12.8342C29.9218 12.7821 29.8734 12.8123 29.9578 13.0876C30.0283 13.2985 30.096 13.5081 30.1499 13.7232C30.2619 13.9177 30.3766 14.1136 30.4913 14.3067C30.5425 13.4684 30.3531 13.1438 30.1527 12.3794C30.0144 11.8411 30.2163 11.6945 30.53 11.2836C30.7263 11.0329 30.9268 10.7987 31.2364 10.6891C32.0658 10.5658 32.6284 11.7644 32.8662 12.3835C33.0044 12.7451 33.1247 13.1122 33.2809 13.4711C33.3859 12.4547 33.1357 11.8055 32.7432 10.8945C32.5883 10.5357 32.6519 10.4932 33.0196 10.3466C33.7661 10.0644 34.2637 10.1001 34.7351 10.7822C34.8397 10.92 34.9348 11.0646 35.0199 11.2151C35.1111 11.489 35.183 11.7561 35.2839 12.037C35.3848 12.3178 35.5009 12.6027 35.6267 12.8821C35.7055 12 35.6018 11.4849 35.2314 10.6904C35.1188 10.481 35.0365 10.2569 34.9867 10.0247C34.9784 9.95761 34.9867 9.9713 35.0489 9.90829C35.6958 9.38777 36.6814 9.86446 37.0464 10.5014C37.233 10.8274 37.3671 11.3644 37.4942 11.7342L37.6767 12.2643H37.8232C37.8675 11.0315 37.3367 10.0425 36.8183 8.96587C37.3173 8.83985 37.8191 8.72342 38.3292 8.64671L38.0126 8.37549C37.5057 8.34044 37.0055 8.24147 36.5238 8.08099C35.9972 7.85223 35.4442 7.68374 34.9355 7.41526C32.6713 6.31943 30.4941 4.84964 27.9271 4.56746C27.641 3.35108 27.3977 2.12511 27.1088 0.908732L27.1074 0.910102ZM10.5041 36.9138L45.028 36.9357C51.4365 36.8946 50.1951 24.1966 44.5234 24.2062C32.9874 24.2007 21.4527 24.2007 9.91942 24.2062C2.34284 24.3843 2.21705 36.9179 10.5028 36.9166L10.5041 36.9138ZM17.3937 2.29908C18.3799 1.75008 19.4363 1.3354 20.5344 1.06626C20.7284 1.42152 20.9019 1.78739 21.0541 2.1621C21.2186 2.54564 21.3652 2.93603 21.5352 3.32094C21.6872 3.66613 21.8296 4.0168 21.972 4.36747C21.0783 4.57858 20.2088 4.88015 19.3774 5.26742C18.6862 4.29761 18.0489 3.29355 17.3937 2.30044V2.29908ZM13.1085 5.70576C13.9795 4.75781 14.953 3.90755 16.0114 3.17027C16.65 4.12912 17.3578 5.04826 17.8844 6.07012C17.1407 6.63996 16.3735 7.19473 15.7363 7.88647C14.8226 7.20158 13.9669 6.45367 13.1098 5.70576H13.1085ZM48.5073 7.34951C49.1086 9.77679 49.8109 12.178 50.361 14.619C50.4993 15.23 50.491 15.8354 49.7528 15.9888C48.8653 16.1436 48.622 14.5437 48.4838 13.9506L48.4727 13.9067C47.859 11.4288 47.2286 8.95628 46.6232 6.47558C46.4697 5.97424 45.9942 4.44555 46.3854 4.03598C46.6619 3.75243 47.2148 3.76202 47.501 4.03598C47.7636 4.28254 47.8714 4.81676 47.9668 5.16332C48.1659 5.88657 48.329 6.61941 48.5087 7.34677L48.5073 7.34951ZM48.2419 14.7067C48.3442 15.2108 48.6193 16.1409 48 16.4203C47.6724 16.5682 47.2701 16.5326 47.0434 16.2313C46.8167 15.9299 46.7241 15.4738 46.6287 15.1258L46.4905 14.6382C45.8214 12.1986 45.2975 9.722 44.6464 7.27691C44.5179 6.85365 43.9857 5.11127 44.164 4.78662C44.37 4.41404 45.2353 4.15789 45.5215 4.61814C45.8076 5.07839 45.9762 5.91808 46.1117 6.46052C46.8029 9.21244 47.5258 11.9561 48.2308 14.7053L48.2419 14.7067ZM50.4882 6.53996C51.0411 8.56452 51.489 10.6014 52.0779 12.6191C52.2548 13.2246 52.5396 14.1122 51.7337 14.3999C51.2098 14.5875 50.8448 14.2848 50.6513 13.8191C50.4578 13.3533 50.3472 12.6958 50.2297 12.2C49.944 11.0046 49.644 9.81332 49.3298 8.62616C49.0907 7.53033 48.705 6.43449 48.5211 5.33865C48.4078 4.65375 48.734 4.22775 49.4501 4.3798C49.9436 4.4839 50.0804 4.88525 50.2062 5.314C50.3223 5.71672 50.3748 6.13587 50.4827 6.54681L50.4882 6.53996ZM50.7992 5.13729C53.6703 4.94278 55.8295 11.3164 52.7193 12.967C52.1083 10.3507 51.4296 7.75086 50.7992 5.13729ZM10.5733 9.78775C11.0612 8.7741 11.5506 7.75771 12.2556 6.87145C13.0919 7.58375 13.96 8.26865 14.7493 9.04806C14.2579 9.62962 13.8486 10.2748 13.5328 10.9658C13.3863 11.2836 13.2375 11.6032 13.0863 11.9246C12.4436 11.5699 11.8422 11.1452 11.1718 10.8384C10.8815 10.6617 10.5968 10.474 10.3231 10.2727C10.406 10.1138 10.4848 9.9535 10.565 9.79186L10.5733 9.78775Z" fill="white"/>
<path d="M11.5129 27.9933C12.7138 27.9938 13.7471 28.8348 13.981 30.002C14.2148 31.1692 13.5841 32.3376 12.4744 32.7926C11.3648 33.2476 10.0854 32.8626 9.41848 31.8729C8.75162 30.8833 8.88307 29.5646 9.73246 28.7234C10.2043 28.2551 10.845 27.9923 11.5129 27.9933ZM14.3246 26.8619L15.172 27.7016C15.3141 27.8427 15.3141 28.0713 15.172 28.2125L14.6467 28.733L14.6163 28.7591C14.7571 29.0032 14.8684 29.263 14.948 29.533H15.7235C15.8199 29.533 15.9124 29.5709 15.9806 29.6385C16.0488 29.706 16.0871 29.7977 16.0871 29.8932V31.0809C16.0871 31.2806 15.9237 31.4425 15.7221 31.4425H14.977C14.9039 31.7247 14.7962 31.997 14.6563 32.2534L15.1706 32.763C15.3128 32.9041 15.3128 33.1327 15.1706 33.2739L14.3232 34.1136C14.1807 34.2545 13.95 34.2545 13.8076 34.1136L13.3252 33.6355C13.0593 33.7939 12.7741 33.9177 12.4764 34.004V34.7163C12.4764 34.916 12.313 35.0779 12.1115 35.0779H10.9185C10.8221 35.0779 10.7296 35.04 10.6614 34.9724C10.5932 34.9049 10.5549 34.8132 10.5549 34.7177V34.0328C10.2435 33.9534 9.94409 33.8331 9.66473 33.6752L9.16708 34.1684C9.02462 34.3093 8.79393 34.3093 8.65147 34.1684L7.8041 33.3287C7.66191 33.1875 7.66191 32.9589 7.8041 32.8178L8.30174 32.3246C8.14241 32.0478 8.02108 31.7511 7.94095 31.4425H7.24978C7.15336 31.4425 7.06087 31.4046 6.99267 31.337C6.9245 31.2694 6.88621 31.1778 6.88623 31.0822V29.8946C6.88623 29.6949 7.04962 29.533 7.25117 29.533H7.96998C8.05705 29.238 8.18202 28.9553 8.34183 28.6919L7.8594 28.2139C7.7172 28.0727 7.7172 27.8441 7.8594 27.7029L8.70677 26.8633C8.84923 26.7224 9.07992 26.7224 9.22238 26.8633L9.73661 27.3728C9.99532 27.2343 10.2701 27.1276 10.5549 27.055V26.3167C10.5549 26.117 10.7183 25.9551 10.9199 25.9551H12.1184C12.2148 25.9551 12.3073 25.993 12.3755 26.0606C12.4437 26.1281 12.4819 26.2198 12.4819 26.3153V27.0509C12.4819 27.0619 12.4819 27.0728 12.4819 27.0838C12.7544 27.1626 13.0165 27.273 13.2629 27.4125L13.2892 27.3824L13.8145 26.8619C13.957 26.721 14.1876 26.721 14.3301 26.8619H14.3246ZM14.836 27.9577L14.0675 27.1961L13.621 27.6386L13.6583 27.6755C13.9186 27.8721 14.1511 28.1025 14.3495 28.3604L14.3868 28.3974L14.8333 27.955L14.836 27.9577ZM15.6654 31.0274V29.9494H15.042C15.1014 30.3059 15.107 30.6693 15.0586 31.0274H15.6654ZM14.0633 33.7807L14.8319 33.0191L14.4269 32.6178C14.2168 32.9128 13.9633 33.1751 13.6749 33.3958L14.0619 33.7794L14.0633 33.7807ZM10.9655 34.6615H12.0534V34.0985C11.6936 34.1573 11.327 34.1629 10.9655 34.115V34.6629V34.6615ZM8.13033 33.0739L8.89891 33.8355L9.29426 33.4438C9.00118 33.2293 8.74212 32.9726 8.52568 32.6821L8.13033 33.0739ZM7.30093 29.9494V31.0274H7.85387C7.8054 30.6693 7.81099 30.3059 7.87045 29.9494H7.30093ZM8.95973 27.1961L8.19116 27.9577L8.57821 28.3413C8.80092 28.0554 9.06557 27.8042 9.36338 27.5961L8.95835 27.1947L8.95973 27.1961ZM12.0575 26.3742H10.9696V26.9756C11.3311 26.9275 11.6978 26.933 12.0575 26.992V26.3742ZM13.6334 28.3919C12.5957 27.3641 10.9698 27.2056 9.74996 28.0135C8.53009 28.8214 8.05594 30.3706 8.61744 31.7139C9.17895 33.0571 10.6197 33.8203 12.0588 33.5368C13.4979 33.2532 14.5344 32.0019 14.5347 30.548C14.5357 29.7391 14.2114 28.9632 13.6334 28.3919ZM12.898 29.1207C12.2374 28.4664 11.2024 28.3658 10.4261 28.8803C9.64974 29.3949 9.34841 30.3812 9.7064 31.236C10.0644 32.0908 10.982 32.5759 11.8978 32.3946C12.8137 32.2132 13.4727 31.416 13.4717 30.4905C13.4719 29.9764 13.2654 29.4835 12.898 29.1207Z" fill="white"/>
<path d="M21.5985 27.9933C22.7994 27.9938 23.8327 28.8348 24.0666 30.002C24.3004 31.1692 23.6697 32.3376 22.56 32.7926C21.4504 33.2476 20.171 32.8626 19.5041 31.8729C18.8372 30.8833 18.9687 29.5646 19.8181 28.7234C20.2899 28.2551 20.9307 27.9923 21.5985 27.9933ZM24.4102 26.8619L25.2576 27.7016C25.3997 27.8427 25.3997 28.0713 25.2576 28.2125L24.7323 28.733L24.7019 28.7591C24.8427 29.0032 24.9541 29.263 25.0336 29.533H25.8091C25.9055 29.533 25.998 29.5709 26.0662 29.6385C26.1344 29.706 26.1727 29.7977 26.1727 29.8932V31.0809C26.1727 31.2806 26.0093 31.4425 25.8077 31.4425H25.0626C24.9894 31.7247 24.8817 31.997 24.7419 32.2534L25.2562 32.763C25.3984 32.9041 25.3984 33.1327 25.2562 33.2739L24.4088 34.1136C24.2663 34.2545 24.0357 34.2545 23.8932 34.1136L23.4108 33.6355C23.1449 33.7939 22.8597 33.9177 22.562 34.004V34.7163C22.562 34.916 22.3986 35.0779 22.1971 35.0779H20.9986C20.9022 35.0779 20.8097 35.04 20.7415 34.9724C20.6733 34.9049 20.635 34.8132 20.635 34.7177V34.0328C20.3236 33.9534 20.0242 33.8331 19.7448 33.6752L19.2472 34.1684C19.1047 34.3093 18.874 34.3093 18.7316 34.1684L17.8842 33.3287C17.742 33.1875 17.742 32.9589 17.8842 32.8178L18.3818 32.3246C18.2225 32.0478 18.1012 31.7511 18.021 31.4425H17.3299C17.2334 31.4425 17.1409 31.4046 17.0727 31.337C17.0046 31.2694 16.9663 31.1778 16.9663 31.0822V29.8946C16.9663 29.6949 17.1297 29.533 17.3312 29.533H18.0501C18.1371 29.238 18.2621 28.9553 18.4219 28.6919L17.9395 28.2139C17.7973 28.0727 17.7973 27.8441 17.9395 27.7029L18.7868 26.8633C18.9293 26.7224 19.16 26.7224 19.3025 26.8633L19.8167 27.3728C20.0754 27.2343 20.3502 27.1276 20.635 27.055V26.3167C20.635 26.117 20.7984 25.9551 21 25.9551H22.1984C22.2949 25.9551 22.3874 25.993 22.4556 26.0606C22.5237 26.1281 22.562 26.2198 22.562 26.3153V27.0509C22.562 27.0619 22.562 27.0728 22.562 27.0838C22.8345 27.1626 23.0966 27.273 23.343 27.4125L23.3693 27.3824L23.8946 26.8619C24.037 26.721 24.2677 26.721 24.4102 26.8619ZM24.9217 27.9577L24.1531 27.1961L23.7066 27.6386L23.7439 27.6755C24.0042 27.8721 24.2367 28.1025 24.4351 28.3604L24.4724 28.3974L24.9189 27.955L24.9217 27.9577ZM25.7511 31.0274V29.9494H25.1276C25.1871 30.3059 25.1927 30.6693 25.1442 31.0274H25.7511ZM24.1489 33.7807L24.9175 33.0191L24.5125 32.6178C24.3024 32.9128 24.0489 33.1751 23.7605 33.3958L24.1475 33.7794L24.1489 33.7807ZM21.0511 34.6615H22.1376V34.0985C21.7783 34.1572 21.4121 34.1628 21.0511 34.115V34.6629V34.6615ZM18.2159 33.0739L18.9845 33.8355L19.3799 33.4438C19.0868 33.2293 18.8277 32.9726 18.6113 32.6821L18.2159 33.0739ZM17.3865 29.9494V31.0274H17.9395C17.891 30.6693 17.8966 30.3059 17.9561 29.9494H17.3865ZM19.0453 27.1961L18.2768 27.9577L18.6638 28.3413C18.8865 28.0554 19.1512 27.8043 19.449 27.5961L19.044 27.1947L19.0453 27.1961ZM22.1432 26.3742H21.0553V26.9756C21.4167 26.9275 21.7834 26.9331 22.1432 26.992V26.3742ZM23.719 28.3919C22.6813 27.3641 21.0554 27.2056 19.8356 28.0135C18.6157 28.8214 18.1415 30.3706 18.703 31.7139C19.2646 33.0571 20.7054 33.8203 22.1444 33.5368C23.5835 33.2532 24.6201 32.0019 24.6203 30.548C24.6214 29.7391 24.297 28.9632 23.719 28.3919ZM22.9836 29.1207C22.323 28.4664 21.288 28.3658 20.5117 28.8803C19.7353 29.3949 19.434 30.3812 19.792 31.236C20.15 32.0908 21.0676 32.5759 21.9834 32.3946C22.8993 32.2132 23.5583 31.416 23.5573 30.4905C23.5575 29.9764 23.351 29.4835 22.9836 29.1207Z" fill="white"/>
<path d="M31.9371 27.8422C33.1379 27.8426 34.1713 28.6836 34.4051 29.8508C34.639 31.018 34.0082 32.1864 32.8986 32.6414C31.789 33.0964 30.5095 32.7114 29.8426 31.7217C29.1758 30.7321 29.3072 29.4135 30.1566 28.5723C30.6284 28.1039 31.2692 27.8411 31.9371 27.8422ZM34.7487 26.7107L35.5961 27.5504C35.7383 27.6916 35.7383 27.9202 35.5961 28.0613L35.0708 28.5818L35.0404 28.6079C35.1813 28.8521 35.2926 29.1118 35.3722 29.3818H36.1476C36.2441 29.3818 36.3366 29.4197 36.4048 29.4873C36.4729 29.5549 36.5112 29.6465 36.5112 29.7421V30.9297C36.5112 31.1294 36.3478 31.2913 36.1463 31.2913H35.4012C35.328 31.5735 35.2203 31.8459 35.0805 32.1022L35.5947 32.6118C35.7369 32.753 35.7369 32.9816 35.5947 33.1227L34.7473 33.9624C34.6049 34.1033 34.3742 34.1033 34.2317 33.9624L33.7493 33.4843C33.4835 33.6427 33.1982 33.7665 32.9005 33.8528V34.5679C32.9005 34.7676 32.7372 34.9295 32.5356 34.9295H31.3371C31.2407 34.9295 31.1482 34.8916 31.08 34.824C31.0118 34.7564 30.9735 34.6648 30.9736 34.5692V33.8843C30.6621 33.8049 30.3627 33.6847 30.0833 33.5268L29.5802 34.0199C29.4377 34.1608 29.207 34.1608 29.0646 34.0199L28.2172 33.1803C28.075 33.0391 28.075 32.8105 28.2172 32.6693L28.7148 32.1762C28.5555 31.8994 28.4342 31.6027 28.354 31.294H27.6629C27.5664 31.2941 27.474 31.2561 27.4058 31.1886C27.3376 31.121 27.2993 31.0293 27.2993 30.9338V29.7462C27.2993 29.5465 27.4627 29.3845 27.6643 29.3845H28.3831C28.4701 29.0896 28.5951 28.8069 28.7549 28.5435L28.2725 28.0654C28.1303 27.9243 28.1303 27.6957 28.2725 27.5545L29.1199 26.7148C29.2623 26.5739 29.493 26.5739 29.6355 26.7148L30.1497 27.2244C30.4084 27.0858 30.6832 26.9791 30.968 26.9066V26.1683C30.968 25.9685 31.1314 25.8066 31.333 25.8066H32.5315C32.6279 25.8066 32.7204 25.8446 32.7886 25.9121C32.8567 25.9797 32.895 26.0713 32.895 26.1669V26.897C32.895 26.908 32.895 26.9189 32.895 26.9299C33.1675 27.0087 33.4296 27.119 33.676 27.2586L33.7023 27.2285L34.2276 26.708C34.37 26.5671 34.6007 26.5671 34.7432 26.708L34.7487 26.7107ZM35.2602 27.8065L34.4916 27.0449L34.0451 27.4874L34.0824 27.5244C34.3427 27.721 34.5752 27.9513 34.7736 28.2093L34.8109 28.2462L35.2574 27.8038L35.2602 27.8065ZM36.0896 30.8763V29.7982H35.4689C35.5283 30.1548 35.5339 30.5181 35.4855 30.8763H36.0896ZM34.4875 33.6295L35.256 32.8679L34.851 32.4666C34.6409 32.7617 34.3875 33.0239 34.099 33.2446L34.4861 33.6282L34.4875 33.6295ZM31.3897 34.5103H32.4831V33.9473C32.1237 34.006 31.7576 34.0116 31.3966 33.9638V34.5117L31.3897 34.5103ZM28.5586 32.9241L29.3272 33.6857L29.7226 33.2939C29.4295 33.0795 29.1704 32.8228 28.954 32.5323L28.5586 32.9241ZM27.7292 29.7996V30.8694H28.2822C28.2337 30.5112 28.2393 30.1479 28.2987 29.7914L27.7292 29.7996ZM29.388 27.0463L28.6125 27.8065L28.9996 28.1901C29.2223 27.9043 29.487 27.6531 29.7848 27.4449L29.3797 27.0436L29.388 27.0463ZM32.4858 26.2244H31.3993V26.8258C31.7603 26.7778 32.1265 26.7834 32.4858 26.8422V26.2244ZM34.0617 28.2421C33.024 27.2143 31.3981 27.0558 30.1783 27.8637C28.9584 28.6716 28.4842 30.2208 29.0457 31.5641C29.6072 32.9073 31.048 33.6705 32.4871 33.387C33.9262 33.1034 34.9627 31.8521 34.963 30.3982C34.964 29.5893 34.6397 28.8134 34.0617 28.2421ZM33.3263 28.9709C32.6657 28.3166 31.6307 28.216 30.8544 28.7305C30.078 29.2451 29.7767 30.2314 30.1347 31.0862C30.4927 31.941 31.4103 32.4261 32.3261 32.2448C33.242 32.0634 33.901 31.2662 33.9 30.3407C33.9002 29.8266 33.6937 29.3337 33.3263 28.9709Z" fill="white"/>
<path d="M42.1596 27.842C43.3605 27.8424 44.3938 28.6834 44.6277 29.8506C44.8615 31.0178 44.2308 32.1862 43.1212 32.6412C42.0115 33.0962 40.7321 32.7112 40.0652 31.7216C39.3983 30.7319 39.5298 29.4133 40.3792 28.5721C40.851 28.1037 41.4918 27.841 42.1596 27.842ZM44.9713 26.7105L45.8187 27.5502C45.9609 27.6914 45.9609 27.92 45.8187 28.0611L45.2934 28.5817L45.263 28.6077C45.4038 28.8519 45.5152 29.1116 45.5947 29.3816H46.3702C46.4667 29.3816 46.5591 29.4195 46.6273 29.4871C46.6955 29.5547 46.7338 29.6463 46.7338 29.7419V30.9295C46.7338 31.1292 46.5704 31.2911 46.3688 31.2911H45.6238C45.5506 31.5734 45.4429 31.8457 45.3031 32.102L45.8173 32.6116C45.9595 32.7528 45.9595 32.9814 45.8173 33.1225L44.9699 33.9622C44.8275 34.1031 44.5968 34.1031 44.4543 33.9622L43.9719 33.4842C43.7061 33.6425 43.4208 33.7664 43.1231 33.8526V34.5677C43.1231 34.7674 42.9597 34.9293 42.7582 34.9293H41.5597C41.4633 34.9293 41.3708 34.8914 41.3026 34.8238C41.2325 34.7566 41.1927 34.6643 41.192 34.5677V33.8828C40.8805 33.8034 40.5811 33.6832 40.3018 33.5253L39.8097 34.0198C39.6672 34.1607 39.4365 34.1607 39.2941 34.0198L38.4467 33.1801C38.3045 33.0389 38.3045 32.8103 38.4467 32.6691L38.9443 32.176C38.785 31.8992 38.6637 31.6025 38.5835 31.2939H37.8924C37.7959 31.2939 37.7034 31.2559 37.6352 31.1884C37.5671 31.1208 37.5288 31.0292 37.5288 30.9336V29.746C37.5288 29.5463 37.6922 29.3844 37.8937 29.3844H38.6126C38.6981 29.0886 38.8217 28.805 38.9803 28.5406L38.4978 28.0625C38.3556 27.9214 38.3556 27.6928 38.4978 27.5516L39.3452 26.7119C39.4877 26.571 39.7183 26.571 39.8608 26.7119L40.375 27.2215C40.633 27.0807 40.9073 26.9716 41.192 26.8968V26.1585C41.192 25.9588 41.3554 25.7969 41.5569 25.7969H42.7554C42.8518 25.7969 42.9443 25.8348 43.0125 25.9023C43.0807 25.9699 43.119 26.0616 43.119 26.1571V26.8968C43.119 26.9078 43.119 26.9187 43.119 26.9297C43.3914 27.0085 43.6536 27.1189 43.9 27.2584L43.9263 27.2283L44.4515 26.7078C44.594 26.5669 44.8247 26.5669 44.9672 26.7078L44.9713 26.7105ZM45.4828 27.8064L44.7142 27.0448L44.2677 27.4872L44.305 27.5242C44.5653 27.7208 44.7978 27.9511 44.9962 28.2091L45.0335 28.2461L45.48 27.8036L45.4828 27.8064ZM46.3122 30.8761V29.7981H45.6887C45.7482 30.1546 45.7537 30.5179 45.7053 30.8761H46.3122ZM44.71 33.6294L45.4786 32.8678L45.0736 32.4664C44.8635 32.7615 44.61 33.0237 44.3216 33.2445L44.7087 33.628L44.71 33.6294ZM41.6122 34.5101H42.7001V33.9472C42.3403 34.006 41.9737 34.0115 41.6122 33.9636V34.5115V34.5101ZM38.7812 32.9239L39.5498 33.6855L39.9451 33.2938C39.652 33.0793 39.393 32.8226 39.1766 32.5322L38.7812 32.9239ZM37.9518 29.7994V30.8692H38.5047C38.4562 30.5111 38.4618 30.1477 38.5213 29.7912L37.9518 29.7994ZM39.6106 27.0461L38.842 27.8064L39.2291 28.1899C39.4518 27.9041 39.7165 27.6529 40.0142 27.4447L39.6092 27.0434L39.6106 27.0461ZM42.7084 26.2243H41.6205V26.8256C41.982 26.7775 42.3486 26.7831 42.7084 26.842V26.2243ZM44.2843 28.242C43.2466 27.2141 41.6207 27.0557 40.4008 27.8635C39.181 28.6714 38.7068 30.2207 39.2683 31.5639C39.8298 32.9071 41.2706 33.6703 42.7097 33.3868C44.1487 33.1033 45.1853 31.8519 45.1856 30.398C45.1866 29.5891 44.8623 28.8132 44.2843 28.242ZM43.542 28.9652C42.8814 28.311 41.8463 28.2103 41.07 28.7249C40.2937 29.2394 39.9924 30.2258 40.3504 31.0806C40.7084 31.9354 41.6259 32.4205 42.5418 32.2391C43.4577 32.0578 44.1166 31.2605 44.1156 30.335C44.1158 29.821 43.9094 29.3281 43.542 28.9652Z" fill="white"/>
</svg>
