<svg width="78" height="56" viewBox="0 0 78 56" fill="none" xmlns="http://www.w3.org/2000/svg">
<path d="M31.8013 0.0479705C33.4988 0.0814075 35.2003 -0.0975792 36.8938 0.0794407C37.0469 1.93618 37.6154 3.72605 37.9434 5.55525C36.6315 5.29366 35.2937 5.37233 33.9679 5.35856C33.7691 4.92585 33.5863 4.4951 33.3855 4.07025C32.8588 2.7249 32.2048 1.42873 31.7953 0.0401029L31.8013 0.0479705ZM38.979 0.588864C42.048 0.378408 46.0056 1.97552 48.8222 3.14582C51.2333 4.34758 53.6961 5.59066 56.3914 6.01354C58.3025 6.30935 60.2444 6.3563 62.1678 6.15319C62.285 6.14335 62.2334 6.12368 62.2751 6.28694C62.9628 8.98944 63.6108 11.7254 64.2628 14.4397C64.9598 17.3244 65.6516 20.2092 66.338 23.094C65.7417 23.4087 65.0877 23.5444 64.4815 23.8198C64.1793 23.9653 63.8852 24.1148 63.5771 24.2564C61.2196 25.5251 59.4943 27.6768 57.9796 29.8168C60.4822 29.8168 62.9827 29.7912 65.4853 29.8306C81.0492 30.9714 78.4472 56 67.473 56L9.14123 55.9764C-1.36986 56.002 -6.63932 29.9958 14.8917 29.8168C13.1942 25.6686 12.9636 21.0012 14.0648 16.676C14.1125 16.0093 14.6452 16.5324 14.9971 16.6564C15.4602 16.9612 15.9293 17.2464 16.4163 17.5198C17.0421 17.8406 17.6511 18.1925 18.241 18.5741C17.3883 21.4674 17.6646 24.579 18.6108 27.4251C18.9268 28.2354 19.1872 29.0714 19.6046 29.8365C30.2827 29.8247 40.9594 29.8247 51.6348 29.8365C53.5013 27.2087 55.2584 24.459 57.6298 22.2384C56.9381 22.4744 56.2245 22.6318 55.5248 22.8521C55.326 22.2305 55.173 21.5972 54.9583 20.9835C54.4594 21.7368 54.0141 22.5059 53.0481 22.7163C52.422 22.8521 51.7441 22.3879 51.4201 22.5629C51.2373 22.6927 51.0922 22.8816 50.8675 23.0369C50.3946 23.3785 49.7894 23.4865 49.2257 23.33C48.6294 23.1766 48.5837 23.1923 48.1046 23.5877C48.0031 23.6726 47.8955 23.7502 47.7826 23.8198C47.2698 24.1558 46.6166 24.2013 46.0612 23.9397C45.2164 23.5464 44.5844 22.8993 43.9622 22.2325C42.0739 22.8422 40.1 23.1746 38.1719 23.6427C37.5288 23.4936 36.9154 23.239 36.3572 22.8894C35.7946 21.9925 35.6972 20.8596 35.8602 19.827L36.536 19.1877C38.5973 18.5682 40.5493 18.1374 42.6543 17.7106C43.026 17.6359 42.9564 17.6791 43.0777 18.0745C43.179 18.3774 43.2764 18.6783 43.354 18.9871C43.515 19.2664 43.6799 19.5477 43.8449 19.825C43.9185 18.6213 43.6461 18.1551 43.3579 17.0576C43.1591 16.2846 43.4494 16.0742 43.9006 15.4841C44.1828 15.1242 44.4711 14.7878 44.9163 14.6305C46.1089 14.4535 46.9179 16.1745 47.2598 17.0635C47.4586 17.5828 47.6315 18.1099 47.8561 18.6252C48.0072 17.1658 47.6474 16.2335 47.0829 14.9255C46.8603 14.4102 46.9517 14.3492 47.4805 14.1387C48.5538 13.7336 49.2694 13.7847 49.9472 14.7642C50.0977 14.9621 50.2345 15.1697 50.3567 15.3858C50.4879 15.7791 50.5913 16.1627 50.7364 16.5659C50.8815 16.9691 51.0484 17.3782 51.2293 17.7795C51.3426 16.5128 51.1935 15.7732 50.6608 14.6324C50.499 14.3316 50.3806 14.0099 50.309 13.6765C50.2971 13.5802 50.309 13.5998 50.3984 13.5093C51.3287 12.7619 52.7459 13.4464 53.2707 14.361C53.5391 14.8291 53.7319 15.6001 53.9147 16.1312L54.1771 16.8924H54.3878C54.4514 15.1222 53.6881 13.7021 52.9427 12.1561C53.6603 11.9752 54.3818 11.808 55.1153 11.6978L54.6601 11.3084C53.9313 11.2581 53.2119 11.116 52.5193 10.8855C51.762 10.557 50.9669 10.3151 50.2355 9.92961C46.9796 8.3561 43.8489 6.24563 40.1577 5.84045C39.7462 4.09386 39.3964 2.33349 38.981 0.586897L38.979 0.588864ZM15.1044 52.2865L64.7478 52.318C73.9629 52.259 72.1779 34.0259 64.0223 34.0397C47.4341 34.0318 30.8478 34.0318 14.2636 34.0397C3.36888 34.2954 3.188 52.2924 15.1024 52.2905L15.1044 52.2865ZM25.0112 2.58329C26.4293 1.79498 27.9484 1.19955 29.5273 0.813089C29.8063 1.32321 30.0558 1.84856 30.2747 2.3866C30.5113 2.93733 30.722 3.49789 30.9664 4.05059C31.1851 4.54624 31.3898 5.04976 31.5946 5.55329C30.3095 5.85642 29.0592 6.28944 27.8636 6.84553C26.8697 5.45298 25.9534 4.01125 25.0112 2.58525V2.58329ZM18.8493 7.47494C20.1018 6.11378 21.5016 4.89289 23.0235 3.83423C23.9418 5.21105 24.9595 6.53083 25.7169 7.99813C24.6475 8.81635 23.5443 9.61294 22.6279 10.6062C21.3141 9.62278 20.0837 8.54886 18.8513 7.47494H18.8493ZM69.7509 9.8352C70.6156 13.3205 71.6254 16.7685 72.4165 20.2735C72.6152 21.1507 72.6033 22.0201 71.5419 22.2404C70.2657 22.4626 69.9159 20.1653 69.7171 19.3136L69.7012 19.2507C68.8187 15.6926 67.9123 12.1424 67.0417 8.58033C66.821 7.86045 66.1372 5.6654 66.6998 5.0773C67.0973 4.67015 67.8924 4.68392 68.3039 5.0773C68.6815 5.43134 68.8366 6.19843 68.9737 6.69605C69.26 7.73456 69.4945 8.78685 69.7529 9.83127L69.7509 9.8352ZM69.3693 20.3993C69.5164 21.1232 69.9119 22.4587 69.0214 22.8599C68.5503 23.0723 67.9719 23.0212 67.6459 22.5885C67.3199 22.1558 67.1868 21.5008 67.0496 21.0012L66.8508 20.301C65.8888 16.798 65.1354 13.2418 64.1992 9.73095C64.0144 9.12319 63.2491 6.62131 63.5055 6.15515C63.8017 5.62016 65.046 5.25235 65.4574 5.91323C65.8689 6.5741 66.1114 7.7798 66.3062 8.55869C67.3001 12.5102 68.3396 16.4498 69.3534 20.3974L69.3693 20.3993ZM72.5993 8.67277C73.3944 11.5798 74.0384 14.5046 74.8852 17.4018C75.1396 18.2712 75.5491 19.5457 74.3903 19.9588C73.6369 20.2282 73.1122 19.7935 72.8339 19.1248C72.5556 18.4561 72.3966 17.512 72.2276 16.7999C71.8168 15.0835 71.3855 13.373 70.9336 11.6683C70.5897 10.0948 70.0352 8.52132 69.7708 6.94781C69.6078 5.96437 70.0769 5.35266 71.1066 5.57099C71.8162 5.72047 72.013 6.29677 72.1938 6.91241C72.3608 7.49067 72.4363 8.09254 72.5914 8.6826L72.5993 8.67277ZM73.0466 6.65868C77.1751 6.37938 80.2799 15.5313 75.8075 17.9014C74.9289 14.1447 73.953 10.4115 73.0466 6.65868ZM15.2038 13.3363C15.9055 11.8808 16.6091 10.4213 17.6228 9.14876C18.8254 10.1715 20.0737 11.155 21.2087 12.2741C20.502 13.1092 19.9136 14.0356 19.4595 15.0278C19.2488 15.4841 19.0348 15.943 18.8175 16.4046C17.8932 15.8952 17.0285 15.2854 16.0645 14.8449C15.6471 14.5911 15.2376 14.3217 14.844 14.0325C14.9633 13.8044 15.0766 13.5743 15.1919 13.3422L15.2038 13.3363Z" fill="#303293"/>
<path d="M16.5553 39.4775C18.2821 39.4782 19.7679 40.6857 20.1042 42.3617C20.4405 44.0377 19.5335 45.7154 17.9379 46.3687C16.3423 47.0221 14.5025 46.4692 13.5436 45.0482C12.5847 43.6272 12.7737 41.7338 13.9951 40.5259C14.6736 39.8533 15.5949 39.4761 16.5553 39.4775ZM20.5983 37.8529L21.8168 39.0586C22.0212 39.2613 22.0212 39.5895 21.8168 39.7922L21.0614 40.5396L21.0177 40.577C21.2202 40.9276 21.3803 41.3006 21.4948 41.6883H22.6099C22.7485 41.6883 22.8815 41.7427 22.9796 41.8397C23.0776 41.9368 23.1327 42.0684 23.1326 42.2056V43.9109C23.1326 44.1977 22.8977 44.4301 22.6079 44.4301H21.5365C21.4313 44.8354 21.2764 45.2264 21.0753 45.5945L21.8148 46.3262C22.0192 46.5289 22.0192 46.8572 21.8148 47.0599L20.5963 48.2656C20.3915 48.4679 20.0597 48.4679 19.8549 48.2656L19.1612 47.5791C18.7789 47.8065 18.3688 47.9843 17.9407 48.1082V49.131C17.9407 49.4178 17.7058 49.6503 17.4159 49.6503H15.7005C15.5619 49.6503 15.4289 49.5958 15.3308 49.4988C15.2328 49.4018 15.1777 49.2702 15.1778 49.133V48.1495C14.7299 48.0355 14.2994 47.8629 13.8977 47.6362L13.1821 48.3442C12.9772 48.5466 12.6455 48.5466 12.4407 48.3442L11.2222 47.1385C11.0177 46.9358 11.0177 46.6076 11.2222 46.4049L11.9378 45.6968C11.7087 45.2993 11.5342 44.8733 11.419 44.4301H10.4251C10.2865 44.4302 10.1535 44.3757 10.0554 44.2787C9.95737 44.1816 9.90231 44.05 9.90234 43.9128V42.2075C9.90234 41.9208 10.1373 41.6883 10.4271 41.6883H11.4607C11.5859 41.2647 11.7656 40.8588 11.9954 40.4806L11.3017 39.7942C11.0972 39.5915 11.0972 39.2632 11.3017 39.0605L12.5202 37.8548C12.725 37.6525 13.0567 37.6525 13.2616 37.8548L14.001 38.5865C14.3731 38.3876 14.7682 38.2344 15.1778 38.1302V37.07C15.1778 36.7833 15.4127 36.5508 15.7025 36.5508H17.4259C17.5645 36.5507 17.6975 36.6052 17.7956 36.7022C17.8936 36.7993 17.9487 36.9309 17.9487 37.0681V38.1243C17.9487 38.14 17.9487 38.1558 17.9487 38.1715C18.3404 38.2847 18.7174 38.4431 19.0717 38.6435L19.1095 38.6003L19.8648 37.8529C20.0697 37.6505 20.4014 37.6505 20.6062 37.8529H20.5983ZM21.3337 39.4264L20.2286 38.3328L19.5865 38.9681L19.6402 39.0212C20.0146 39.3034 20.3488 39.6342 20.6341 40.0046L20.6877 40.0577L21.3298 39.4224L21.3337 39.4264ZM22.5264 43.8342V42.2862H21.6299C21.7154 42.7982 21.7234 43.3199 21.6538 43.8342H22.5264ZM20.2226 47.7876L21.3278 46.694L20.7454 46.1177C20.4433 46.5414 20.0788 46.918 19.6641 47.2349L20.2206 47.7856L20.2226 47.7876ZM15.7681 49.0523H17.3325V48.2439C16.8151 48.3284 16.2879 48.3363 15.7681 48.2675V49.0543V49.0523ZM11.6913 46.7727L12.7965 47.8663L13.365 47.3038C12.9435 46.9958 12.571 46.6272 12.2598 46.2102L11.6913 46.7727ZM10.4987 42.2862V43.8342H11.2938C11.2241 43.3199 11.2321 42.7982 11.3176 42.2862H10.4987ZM12.8839 38.3328L11.7788 39.4264L12.3353 39.9771C12.6556 39.5667 13.0361 39.206 13.4643 38.9071L12.8819 38.3308L12.8839 38.3328ZM17.3384 37.1527H15.7741V38.0161C16.2938 37.9471 16.8211 37.955 17.3384 38.0397V37.1527ZM19.6044 40.0499C18.1123 38.574 15.7743 38.3465 14.0202 39.5065C12.2661 40.6665 11.5843 42.8911 12.3917 44.8198C13.1991 46.7486 15.2709 47.8444 17.3402 47.4373C19.4095 47.0302 20.9001 45.2334 20.9004 43.1458C20.9019 41.9843 20.4355 40.8701 19.6044 40.0499ZM18.547 41.0963C17.5971 40.1568 16.1087 40.0123 14.9924 40.7511C13.8761 41.49 13.4428 42.9063 13.9576 44.1337C14.4724 45.3611 15.7918 46.0577 17.1088 45.7973C18.4257 45.5369 19.3733 44.3921 19.3719 43.0631C19.3722 42.3251 19.0753 41.6173 18.547 41.0963Z" fill="#303293"/>
<path d="M31.0574 39.4775C32.7842 39.4782 34.27 40.6857 34.6063 42.3617C34.9425 44.0377 34.0356 45.7154 32.44 46.3687C30.8444 47.0221 29.0046 46.4692 28.0457 45.0482C27.0868 43.6272 27.2758 41.7338 28.4972 40.5259C29.1756 39.8533 30.097 39.4761 31.0574 39.4775ZM35.1004 37.8529L36.3189 39.0586C36.5233 39.2613 36.5233 39.5895 36.3189 39.7922L35.5635 40.5396L35.5198 40.577C35.7223 40.9276 35.8825 41.3006 35.9968 41.6883H37.112C37.2506 41.6883 37.3836 41.7427 37.4817 41.8397C37.5797 41.9368 37.6348 42.0684 37.6347 42.2056V43.9109C37.6347 44.1977 37.3998 44.4301 37.11 44.4301H36.0386C35.9333 44.8354 35.7785 45.2264 35.5774 45.5945L36.3169 46.3262C36.5213 46.5289 36.5213 46.8572 36.3169 47.0599L35.0984 48.2656C34.8935 48.4679 34.5618 48.4679 34.357 48.2656L33.6633 47.5791C33.281 47.8065 32.8708 47.9843 32.4428 48.1082V49.131C32.4428 49.4178 32.2079 49.6503 31.918 49.6503H30.1947C30.056 49.6503 29.923 49.5958 29.825 49.4988C29.7269 49.4018 29.6719 49.2702 29.6719 49.133V48.1495C29.224 48.0355 28.7935 47.8629 28.3918 47.6362L27.6762 48.3442C27.4714 48.5466 27.1397 48.5466 26.9348 48.3442L25.7163 47.1385C25.5119 46.9358 25.5119 46.6076 25.7163 46.4049L26.4319 45.6968C26.2028 45.2993 26.0284 44.8733 25.9131 44.4301H24.9193C24.7806 44.4302 24.6476 44.3757 24.5495 44.2787C24.4515 44.1816 24.3965 44.05 24.3965 43.9128V42.2075C24.3965 41.9208 24.6314 41.6883 24.9212 41.6883H25.9549C26.08 41.2647 26.2597 40.8588 26.4896 40.4806L25.7958 39.7942C25.5914 39.5915 25.5914 39.2632 25.7958 39.0605L27.0143 37.8548C27.2192 37.6525 27.5509 37.6525 27.7557 37.8548L28.4952 38.5865C28.8672 38.3876 29.2624 38.2343 29.6719 38.1302V37.07C29.6719 36.7833 29.9068 36.5508 30.1967 36.5508H31.92C32.0587 36.5507 32.1917 36.6052 32.2897 36.7022C32.3878 36.7993 32.4428 36.9309 32.4428 37.0681V38.1243C32.4428 38.14 32.4428 38.1558 32.4428 38.1715C32.8346 38.2847 33.2115 38.4431 33.5659 38.6435L33.6036 38.6003L34.359 37.8529C34.5638 37.6505 34.8955 37.6505 35.1004 37.8529ZM35.8358 39.4264L34.7307 38.3328L34.0886 38.9681L34.1423 39.0212C34.5166 39.3034 34.8509 39.6342 35.1362 40.0046L35.1898 40.0577L35.8319 39.4224L35.8358 39.4264ZM37.0285 43.8342V42.2862H36.132C36.2175 42.7982 36.2256 43.3199 36.1559 43.8342H37.0285ZM34.7247 47.7876L35.8299 46.694L35.2475 46.1177C34.9454 46.5414 34.5809 46.918 34.1662 47.2349L34.7227 47.7856L34.7247 47.7876ZM30.2702 49.0523H31.8326V48.2439C31.3158 48.3282 30.7893 48.3362 30.2702 48.2675V49.0543V49.0523ZM26.1934 46.7727L27.2986 47.8663L27.8671 47.3038C27.4456 46.9958 27.0731 46.6272 26.7619 46.2102L26.1934 46.7727ZM25.0008 42.2862V43.8342H25.7958C25.7261 43.3199 25.7342 42.7982 25.8197 42.2862H25.0008ZM27.386 38.3328L26.2808 39.4264L26.8374 39.9771C27.1577 39.5667 27.5382 39.206 27.9664 38.9071L27.384 38.3308L27.386 38.3328ZM31.8405 37.1527H30.2762V38.0161C30.7959 37.9471 31.3231 37.9551 31.8405 38.0397V37.1527ZM34.1065 40.0499C32.6144 38.574 30.2764 38.3465 28.5223 39.5065C26.7682 40.6665 26.0864 42.8911 26.8938 44.8198C27.7012 46.7486 29.773 47.8444 31.8423 47.4373C33.9116 47.0302 35.4022 45.2334 35.4025 43.1458C35.404 41.9843 34.9376 40.8701 34.1065 40.0499ZM33.049 41.0963C32.0992 40.1568 30.6108 40.0123 29.4945 40.7511C28.3782 41.49 27.9449 42.9063 28.4597 44.1337C28.9745 45.3611 30.2939 46.0577 31.6109 45.7973C32.9278 45.5369 33.8754 44.3921 33.874 43.0631C33.8742 42.3251 33.5774 41.6173 33.049 41.0963Z" fill="#303293"/>
<path d="M45.9237 39.2617C47.6505 39.2623 49.1364 40.4699 49.4726 42.1459C49.8089 43.8219 48.9019 45.4995 47.3063 46.1529C45.7108 46.8062 43.871 46.2534 42.912 44.8323C41.9531 43.4113 42.1421 41.5179 43.3635 40.31C44.042 39.6375 44.9634 39.2602 45.9237 39.2617ZM49.9667 37.637L51.1852 38.8427C51.3897 39.0454 51.3897 39.3737 51.1852 39.5764L50.4299 40.3238L50.3861 40.3612C50.5887 40.7118 50.7488 41.0848 50.8632 41.4724H51.9783C52.117 41.4724 52.25 41.5269 52.348 41.6239C52.4461 41.7209 52.5011 41.8525 52.5011 41.9897V43.695C52.5011 43.9818 52.2661 44.2143 51.9763 44.2143H50.9049C50.7997 44.6195 50.6448 45.0106 50.4438 45.3787L51.1832 46.1104C51.3877 46.3131 51.3877 46.6413 51.1832 46.844L49.9647 48.0497C49.7599 48.252 49.4282 48.252 49.2233 48.0497L48.5296 47.3633C48.1474 47.5907 47.7372 47.7685 47.3091 47.8924V48.9191C47.3091 49.2059 47.0742 49.4383 46.7844 49.4383H45.061C44.9224 49.4384 44.7894 49.3839 44.6913 49.2869C44.5933 49.1898 44.5382 49.0583 44.5383 48.921V47.9376C44.0904 47.8236 43.6599 47.651 43.2582 47.4242L42.5346 48.1323C42.3298 48.3346 41.9981 48.3346 41.7932 48.1323L40.5747 46.9266C40.3703 46.7239 40.3703 46.3957 40.5747 46.193L41.2903 45.4849C41.0612 45.0874 40.8867 44.6614 40.7715 44.2182H39.7777C39.639 44.2182 39.506 44.1638 39.4079 44.0668C39.3099 43.9697 39.2549 43.8381 39.2549 43.7009V41.9956C39.2549 41.7089 39.4898 41.4764 39.7796 41.4764H40.8133C40.9384 41.0528 41.1181 40.6469 41.348 40.2687L40.6542 39.5823C40.4498 39.3796 40.4498 39.0513 40.6542 38.8486L41.8727 37.6429C42.0776 37.4406 42.4093 37.4406 42.6141 37.6429L43.3536 38.3746C43.7256 38.1757 44.1208 38.0224 44.5303 37.9183V36.8581C44.5303 36.5713 44.7653 36.3389 45.0551 36.3389H46.7784C46.9171 36.3388 47.0501 36.3933 47.1481 36.4903C47.2462 36.5874 47.3012 36.7189 47.3012 36.8562V37.9045C47.3012 37.9202 47.3012 37.936 47.3012 37.9517C47.693 38.0649 48.0699 38.2233 48.4243 38.4238L48.462 38.3805L49.2174 37.6331C49.4222 37.4308 49.7539 37.4308 49.9588 37.6331L49.9667 37.637ZM50.7022 39.2105L49.597 38.1169L48.955 38.7522L49.0087 38.8053C49.383 39.0876 49.7172 39.4184 50.0025 39.7888L50.0562 39.8419L50.6982 39.2066L50.7022 39.2105ZM51.8948 43.6183V42.0704H51.0023C51.0878 42.5823 51.0958 43.104 51.0262 43.6183H51.8948ZM49.5911 47.5718L50.6962 46.4782L50.1138 45.9019C49.8118 46.3256 49.4473 46.7022 49.0325 47.0191L49.5891 47.5698L49.5911 47.5718ZM45.1366 48.8365H46.7089V48.0281C46.1921 48.1123 45.6656 48.1203 45.1465 48.0517V48.8384L45.1366 48.8365ZM41.0657 46.5588L42.1709 47.6524L42.7394 47.0899C42.3179 46.7819 41.9454 46.4133 41.6342 45.9963L41.0657 46.5588ZM39.8731 42.0723V43.6085H40.6682C40.5985 43.0942 40.6066 42.5725 40.692 42.0605L39.8731 42.0723ZM42.2583 38.1189L41.1432 39.2105L41.6998 39.7612C42.0201 39.3508 42.4006 38.9902 42.8288 38.6913L42.2464 38.115L42.2583 38.1189ZM46.7128 36.9388H45.1505V37.8022C45.6696 37.7334 46.1961 37.7414 46.7128 37.8258V36.9388ZM48.9788 39.836C47.4867 38.3601 45.1487 38.1326 43.3946 39.2926C41.6405 40.4527 40.9587 42.6772 41.7661 44.6059C42.5736 46.5347 44.6453 47.6306 46.7146 47.2234C48.7839 46.8163 50.2745 45.0196 50.2748 42.9319C50.2763 41.7704 49.8099 40.6562 48.9788 39.836ZM47.9214 40.8824C46.9715 39.9429 45.4832 39.7984 44.3668 40.5373C43.2505 41.2761 42.8172 42.6924 43.332 43.9198C43.8468 45.1472 45.1662 45.8438 46.4832 45.5834C47.8001 45.323 48.7477 44.1782 48.7463 42.8493C48.7466 42.1112 48.4497 41.4034 47.9214 40.8824Z" fill="#303293"/>
<path d="M60.6237 39.2627C62.3505 39.2634 63.8364 40.471 64.1726 42.147C64.5089 43.8229 63.6019 45.5006 62.0063 46.154C60.4108 46.8073 58.571 46.2544 57.6121 44.8334C56.6531 43.4124 56.8422 41.519 58.0635 40.3111C58.742 39.6386 59.6634 39.2613 60.6237 39.2627ZM64.6668 37.6381L65.8852 38.8438C66.0897 39.0465 66.0897 39.3747 65.8852 39.5774L65.1299 40.3249L65.0862 40.3622C65.2887 40.7128 65.4488 41.0858 65.5632 41.4735H66.6783C66.817 41.4735 66.95 41.528 67.048 41.625C67.1461 41.722 67.2011 41.8536 67.2011 41.9908V43.6961C67.2011 43.9829 66.9662 44.2154 66.6763 44.2154H65.605C65.4997 44.6206 65.3449 45.0117 65.1438 45.3798L65.8832 46.1114C66.0877 46.3141 66.0877 46.6424 65.8832 46.8451L64.6648 48.0508C64.4599 48.2531 64.1282 48.2531 63.9233 48.0508L63.2296 47.3643C62.8474 47.5917 62.4372 47.7695 62.0092 47.8934V48.9201C62.0092 49.2069 61.7742 49.4394 61.4844 49.4394H59.761C59.6224 49.4394 59.4894 49.385 59.3913 49.288C59.2906 49.1914 59.2333 49.0589 59.2323 48.9201V47.9367C58.7844 47.8227 58.3539 47.6501 57.9522 47.4233L57.2446 48.1334C57.0397 48.3357 56.708 48.3357 56.5032 48.1334L55.2847 46.9277C55.0802 46.725 55.0802 46.3967 55.2847 46.194L56.0003 45.486C55.7712 45.0885 55.5967 44.6625 55.4815 44.2193H54.4876C54.349 44.2193 54.216 44.1648 54.1179 44.0678C54.0199 43.9708 53.9648 43.8392 53.9648 43.702V41.9967C53.9648 41.7099 54.1998 41.4774 54.4896 41.4774H55.5232C55.6462 41.0528 55.8239 40.6456 56.052 40.2658L55.3582 39.5794C55.1538 39.3767 55.1538 39.0485 55.3582 38.8458L56.5767 37.6401C56.7816 37.4377 57.1133 37.4377 57.3181 37.6401L58.0576 38.3717C58.4285 38.1696 58.823 38.013 59.2323 37.9056V36.8454C59.2323 36.5587 59.4673 36.3262 59.7571 36.3262H61.4804C61.6191 36.3261 61.7521 36.3806 61.8501 36.4776C61.9482 36.5747 62.0032 36.7063 62.0032 36.8435V37.9056C62.0032 37.9213 62.0032 37.9371 62.0032 37.9528C62.395 38.066 62.7719 38.2244 63.1263 38.4248L63.164 38.3816L63.9194 37.6342C64.1242 37.4318 64.4559 37.4318 64.6608 37.6342L64.6668 37.6381ZM65.4022 39.2116L64.297 38.118L63.655 38.7533L63.7087 38.8064C64.083 39.0887 64.4173 39.4195 64.7025 39.7899L64.7562 39.843L65.3982 39.2077L65.4022 39.2116ZM66.5948 43.6194V42.0714H65.6984C65.7838 42.5834 65.7919 43.1051 65.7222 43.6194H66.5948ZM64.2911 47.5728L65.3962 46.4792L64.8138 45.9029C64.5117 46.3266 64.1473 46.7032 63.7325 47.0201L64.2891 47.5709L64.2911 47.5728ZM59.8366 48.8375H61.4009V48.0291C60.8835 48.1136 60.3563 48.1216 59.8366 48.0527V48.8395V48.8375ZM55.7657 46.5599L56.8709 47.6535L57.4394 47.0909C57.0179 46.783 56.6454 46.4144 56.3342 45.9974L55.7657 46.5599ZM54.5731 42.0734V43.6096H55.3682C55.2985 43.0953 55.3065 42.5736 55.392 42.0616L54.5731 42.0734ZM56.9584 38.12L55.8532 39.2116L56.4097 39.7623C56.73 39.3519 57.1106 38.9913 57.5388 38.6923L56.9564 38.116L56.9584 38.12ZM61.4128 36.9398H59.8485V37.8033C60.3682 37.7343 60.8955 37.7423 61.4128 37.8269V36.9398ZM63.6789 39.8371C62.1867 38.3611 59.8488 38.1337 58.0947 39.2937C56.3405 40.4537 55.6587 42.6783 56.4662 44.607C57.2736 46.5358 59.3454 47.6316 61.4147 47.2245C63.4839 46.8174 64.9745 45.0206 64.9748 42.9329C64.9764 41.7715 64.5099 40.6573 63.6789 39.8371ZM62.6114 40.8756C61.6615 39.9361 60.1732 39.7916 59.0569 40.5305C57.9406 41.2693 57.5073 42.6856 58.0221 43.913C58.5369 45.1404 59.8563 45.837 61.1733 45.5766C62.4902 45.3162 63.4378 44.1714 63.4363 42.8425C63.4366 42.1044 63.1398 41.3966 62.6114 40.8756Z" fill="#303293"/>
</svg>
