<svg width="13" height="25" viewBox="0 0 13 25" fill="none" xmlns="http://www.w3.org/2000/svg">
<path d="M11.25 6.5C10.8358 6.5 10.5 6.83579 10.5 7.25V18C10.5 20.21 8.71 22 6.5 22C4.29 22 2.5 20.21 2.5 18V5.5C2.5 4.12 3.62 3 5 3C6.38 3 7.5 4.12 7.5 5.5V16C7.5 16.55 7.05 17 6.5 17C5.95 17 5.5 16.55 5.5 16V7.25C5.5 6.83579 5.16421 6.5 4.75 6.5C4.33579 6.5 4 6.83579 4 7.25V16C4 17.38 5.12 18.5 6.5 18.5C7.88 18.5 9 17.38 9 16V5.5C9 3.29 7.21 1.5 5 1.5C2.79 1.5 1 3.29 1 5.5V18C1 21.04 3.46 23.5 6.5 23.5C9.54 23.5 12 21.04 12 18V7.25C12 6.83579 11.6642 6.5 11.25 6.5Z" fill="white"/>
</svg>
