<svg width="64" height="64" viewBox="0 0 64 64" fill="none" xmlns="http://www.w3.org/2000/svg">
<g filter="url(#filter0_b_228_652)">
<rect width="64" height="64" rx="32" fill="white" fill-opacity="0.1"/>
<rect x="1" y="1" width="62" height="62" rx="31" stroke="#171717" stroke-width="2"/>
</g>
<path d="M25.3828 21.7861C26.2809 21.7861 27.0973 21.8613 27.8395 22.0265C28.5742 22.1843 29.2051 22.4472 29.7395 22.8153C30.2664 23.1759 30.6746 23.6642 30.9641 24.2652C31.2535 24.8662 31.3945 25.6174 31.3945 26.5039C31.3945 27.4655 31.1793 28.2618 30.7488 28.9078C30.3184 29.5464 29.6801 30.0722 28.8266 30.4779C29.9844 30.816 30.8453 31.4094 31.4094 32.2508C31.9809 33.0997 32.2629 34.1139 32.2629 35.3083C32.2629 36.2774 32.0773 37.1038 31.7137 37.8024C31.3426 38.5086 30.8453 39.087 30.2219 39.5303C29.5984 39.9735 28.8859 40.304 28.0844 40.5219C27.2902 40.7322 26.4664 40.8449 25.6277 40.8449H16.5137V21.7861H25.3828ZM24.8484 29.4788C25.5832 29.4788 26.1918 29.306 26.6742 28.9454C27.1492 28.5923 27.3793 28.0139 27.3793 27.21C27.3793 26.7668 27.3051 26.3987 27.1492 26.1132C26.9859 25.8278 26.7781 25.6099 26.5109 25.4522C26.2438 25.2869 25.9469 25.1817 25.5981 25.1141C25.2566 25.0465 24.9004 25.0164 24.5293 25.0164H20.6551V29.4713H24.8484V29.4788ZM25.0785 37.5921C25.4867 37.5921 25.8727 37.5545 26.2438 37.4719C26.6148 37.3893 26.9414 37.2615 27.2234 37.0662C27.498 36.8784 27.7281 36.6305 27.8988 36.3075C28.0695 35.9844 28.1438 35.5713 28.1438 35.0755C28.1438 34.0913 27.8691 33.4002 27.3273 32.972C26.7856 32.5513 26.0582 32.3485 25.1676 32.3485H20.6625V37.5921H25.0785Z" fill="#171717"/>
<path d="M38.1783 37.5243C38.7424 38.0803 39.5514 38.3582 40.5978 38.3582C41.3549 38.3582 42.008 38.1629 42.5498 37.7798C43.0916 37.3966 43.4256 36.9835 43.5518 36.5553H46.8471C46.3201 38.2155 45.5111 39.4024 44.4201 40.1161C43.3365 40.8298 42.0154 41.1904 40.4717 41.1904C39.3955 41.1904 38.4307 41.0176 37.5623 40.6645C36.6939 40.3114 35.974 39.8231 35.3654 39.1846C34.7717 38.5385 34.3115 37.7798 33.985 36.8858C33.6584 35.9993 33.4951 35.0152 33.4951 33.9485C33.4951 32.9193 33.6658 31.9502 33.9998 31.0637C34.3412 30.1698 34.8088 29.396 35.4248 28.7499C36.0408 28.0964 36.7756 27.5855 37.6365 27.2099C38.49 26.8343 39.4326 26.6465 40.4791 26.6465C41.6295 26.6465 42.6389 26.8719 43.5072 27.3301C44.3682 27.7808 45.0732 28.3893 45.6299 29.1556C46.1865 29.9219 46.5799 30.7933 46.8248 31.7699C47.0697 32.7465 47.1588 33.7682 47.0846 34.8424H37.2506C37.2506 35.9392 37.6143 36.9759 38.1783 37.5243ZM42.4756 30.2825C42.0303 29.7866 41.2807 29.5162 40.3604 29.5162C39.7592 29.5162 39.2693 29.6214 38.8686 29.8242C38.4826 30.027 38.1635 30.2825 37.9186 30.5829C37.6736 30.891 37.5103 31.214 37.4139 31.552C37.3174 31.8901 37.258 32.1906 37.2432 32.461H43.3365C43.2549 31.4995 42.9283 30.7858 42.4756 30.2825Z" fill="#171717"/>
<path d="M44.116 23.0635H36.4863V24.9416H44.116V23.0635Z" fill="#171717"/>
<defs>
<filter id="filter0_b_228_652" x="-26" y="-26" width="116" height="116" filterUnits="userSpaceOnUse" color-interpolation-filters="sRGB">
<feFlood flood-opacity="0" result="BackgroundImageFix"/>
<feGaussianBlur in="BackgroundImageFix" stdDeviation="13"/>
<feComposite in2="SourceAlpha" operator="in" result="effect1_backgroundBlur_228_652"/>
<feBlend mode="normal" in="SourceGraphic" in2="effect1_backgroundBlur_228_652" result="shape"/>
</filter>
</defs>
</svg>
