<svg width="13" height="24" viewBox="0 0 13 24" fill="none" xmlns="http://www.w3.org/2000/svg">
<path d="M11.25 6C10.8358 6 10.5 6.33579 10.5 6.75V17.5C10.5 19.71 8.71 21.5 6.5 21.5C4.29 21.5 2.5 19.71 2.5 17.5V5C2.5 3.62 3.62 2.5 5 2.5C6.38 2.5 7.5 3.62 7.5 5V15.5C7.5 16.05 7.05 16.5 6.5 16.5C5.95 16.5 5.5 16.05 5.5 15.5V6.75C5.5 6.33579 5.16421 6 4.75 6C4.33579 6 4 6.33579 4 6.75V15.5C4 16.88 5.12 18 6.5 18C7.88 18 9 16.88 9 15.5V5C9 2.79 7.21 1 5 1C2.79 1 1 2.79 1 5V17.5C1 20.54 3.46 23 6.5 23C9.54 23 12 20.54 12 17.5V6.75C12 6.33579 11.6642 6 11.25 6Z" fill="#747474"/>
</svg>
