<svg width="64" height="64" viewBox="0 0 64 64" fill="none" xmlns="http://www.w3.org/2000/svg">
<g filter="url(#filter0_b_228_659)">
<rect width="64" height="64" rx="32" fill="white" fill-opacity="0.1"/>
<rect x="1" y="1" width="62" height="62" rx="31" stroke="#0DE028" stroke-width="2"/>
</g>
<g clip-path="url(#clip0_228_659)">
<path d="M18.5908 44.7755C18.9682 43.6435 19.3236 42.5826 19.6791 41.5216C20.0346 40.4716 20.3518 39.4052 20.7564 38.3716C20.9643 37.8466 20.8986 37.4529 20.6361 36.9607C19.2033 34.3029 18.7768 31.4537 19.2744 28.4896C19.6955 25.9794 20.7619 23.7591 22.4846 21.8724C25.3229 18.7716 28.8666 17.2841 33.0557 17.4591C36.1236 17.5849 38.8361 18.706 41.1494 20.7349C43.3041 22.6216 44.7096 24.9677 45.3604 27.7568C45.8854 30.0044 45.8252 32.2412 45.1799 34.456C44.3596 37.2615 42.7901 39.5748 40.4549 41.3357C37.2119 43.7857 33.5752 44.5458 29.6104 43.7748C28.4182 43.5451 27.2807 43.1185 26.2088 42.5388C26.0338 42.4458 25.8861 42.424 25.6947 42.4896C23.6604 43.1458 21.6205 43.7966 19.5861 44.4474C19.2799 44.5458 18.9682 44.6497 18.5908 44.7755ZM22.0525 41.3466C22.1619 41.3193 22.2111 41.3083 22.2604 41.2919C23.5346 40.8873 24.8088 40.4771 26.0885 40.0833C26.2088 40.0451 26.3729 40.0779 26.4877 40.1326C27.04 40.406 27.5705 40.7341 28.1393 40.9748C30.4799 41.9646 32.8916 42.1232 35.3307 41.4451C38.24 40.6302 40.4713 38.8966 41.9971 36.2771C43.3041 34.0349 43.7526 31.6123 43.3479 29.0638C42.8338 25.8209 41.1713 23.2724 38.4205 21.4623C36.0361 19.8982 33.4111 19.3677 30.6111 19.8107C28.1994 20.1935 26.1377 21.2927 24.4369 23.0537C22.9768 24.563 21.9979 26.3459 21.5713 28.3966C20.9643 31.3333 21.4127 34.1115 23.0424 36.6435C23.3705 37.1521 23.3596 37.5404 23.1627 38.0599C22.7635 39.1263 22.4299 40.2146 22.0525 41.3466Z" fill="#0DE028"/>
<path d="M39.2901 34.5981C39.2737 35.6536 38.7761 36.4575 37.7698 36.9606C36.78 37.4528 35.7737 37.5786 34.7401 37.1739C33.8104 36.8075 32.8698 36.4521 31.9729 36.0091C30.7917 35.4239 29.8237 34.5489 28.9378 33.581C27.9589 32.5091 27.1276 31.3169 26.444 30.0427C25.9573 29.1403 25.662 28.1833 25.7659 27.1333C25.8753 26.0177 26.3948 25.1263 27.2698 24.4536C27.4448 24.3224 27.7073 24.2622 27.9315 24.2403C28.2214 24.2185 28.5112 24.2622 28.801 24.2841C29.0417 24.306 29.1729 24.4755 29.2549 24.6724C29.4682 25.1974 29.6596 25.7224 29.862 26.2528C29.9987 26.6083 30.1026 26.9802 30.2667 27.3247C30.469 27.7513 30.3432 28.1067 30.0807 28.4349C29.8565 28.7138 29.6214 28.9817 29.3643 29.2224C29.151 29.4247 29.1128 29.6325 29.2549 29.8786C29.8839 30.9997 30.6495 32.006 31.6612 32.8208C32.3284 33.3567 33.0667 33.756 33.8323 34.1278C34.0565 34.2372 34.2753 34.2208 34.4503 34.0185C34.8276 33.5864 35.2104 33.1599 35.5823 32.7224C35.8229 32.4435 35.9432 32.3888 36.2659 32.5528C37.2011 33.0231 38.1253 33.5099 39.055 33.9966C39.2737 34.1169 39.3284 34.3138 39.2901 34.5981Z" fill="#0DE028"/>
</g>
<defs>
<filter id="filter0_b_228_659" x="-26" y="-26" width="116" height="116" filterUnits="userSpaceOnUse" color-interpolation-filters="sRGB">
<feFlood flood-opacity="0" result="BackgroundImageFix"/>
<feGaussianBlur in="BackgroundImageFix" stdDeviation="13"/>
<feComposite in2="SourceAlpha" operator="in" result="effect1_backgroundBlur_228_659"/>
<feBlend mode="normal" in="SourceGraphic" in2="effect1_backgroundBlur_228_659" result="shape"/>
</filter>
<clipPath id="clip0_228_659">
<rect width="28" height="28" fill="white" transform="translate(18 17)"/>
</clipPath>
</defs>
</svg>
